<?xml version="1.0" encoding="UTF-8"?><svg id="Capa_1" xmlns="http://www.w3.org/2000/svg" width="48.1826" height="16.3484" viewBox="0 0 48.1826 16.3484"><defs><style>.cls-1{stroke-width:0px;}</style></defs><path class="cls-1" d="m9.8135,9.7693l3.4766,6.249h-3.9609l-3.0801-5.6543h-1.6943l-1.0996,5.6543H0L3.0586.3078h5.501c2.7061,0,4.9502,1.5625,4.9502,4.2246,0,2.6406-1.6064,4.4009-3.6963,5.2368Zm-2.4639-2.5303c1.6504,0,2.5957-.8799,2.5957-2.0244,0-.8799-.7256-1.4521-2.0244-1.4521h-2.0898l-.6602,3.4766h2.1787Z"/><path class="cls-1" d="m27.7217.3078h3.4541l-3.0586,15.7104h-4.6426l-3.1904-10.2754-2.002,10.2754h-3.4551L17.8857.3078h4.6211l3.168,10.4517L27.7217.3078Z"/><path class="cls-1" d="m32.0107,9.5495C32.0107,4.2688,36.7412.0222,41.6475.0002c3.1465-.0225,5.3691,1.6719,6.1836,3.8062l-3.3672,1.7163c-.4619-1.0781-1.4297-2.1562-3.2998-2.1562-2.6191,0-5.457,2.1343-5.457,5.7651,0,2.3535,1.4961,3.8496,3.6963,3.8496,2.2441,0,3.8281-1.4082,4.3564-2.7051h-3.542l.5938-3.0591h7.3711c-.0664.418-.1318.9243-.2422,1.4517-.8145,4.2031-4.4668,7.6797-9.1973,7.6797-3.9609,0-6.7324-2.9043-6.7324-6.7988Z"/></svg>