<svg width="19" height="18" viewBox="0 0 19 18" fill="none" xmlns="http://www.w3.org/2000/svg">
<path d="M11.8 18V15.95C13.3 15.5167 14.5083 14.6834 15.425 13.45C16.3417 12.2167 16.8 10.8167 16.8 9.25002C16.8 7.68336 16.3417 6.28336 15.425 5.05002C14.5083 3.81669 13.3 2.98336 11.8 2.55002V0.500023C13.8667 0.96669 15.55 2.01252 16.85 3.63752C18.15 5.26252 18.8 7.13336 18.8 9.25002C18.8 11.3667 18.15 13.2375 16.85 14.8625C15.55 16.4875 13.8667 17.5334 11.8 18ZM0.799988 12.275V6.27502H4.79999L9.79999 1.27502V17.275L4.79999 12.275H0.799988ZM11.8 13.275V5.22502C12.5833 5.59169 13.1958 6.14169 13.6375 6.87502C14.0792 7.60836 14.3 8.40836 14.3 9.27502C14.3 10.125 14.0792 10.9125 13.6375 11.6375C13.1958 12.3625 12.5833 12.9084 11.8 13.275ZM7.79999 6.12502L5.64999 8.27502H2.79999V10.275H5.64999L7.79999 12.425V6.12502Z" fill="black"/>
</svg>
