<svg width="1000" height="1000" viewBox="0 0 1000 1000" xmlns="http://www.w3.org/2000/svg">
    <g clip-path="url(#clip0_52_672)">
        <path
            d="M559.399 274.337L689.199 304.081L676.895 358.555L732.543 389.671L743.76 376.674L985.509 523.273L862.7 717.8L699.04 614.477L682.236 649.044L730.329 679.407L694.086 794.061L675.988 776.612L651.789 854.697L541.971 823.515L517.057 920.224L448.865 877.173L385.324 860.148L353.023 839.755L287.764 725.27L288.171 675.332L307.538 611.262L318.305 618.059L350.85 525.164L409.518 545.137L422.846 503.355L291.91 465.868L225.654 472.226L184.249 455.122L143.9 423.625L42.9963 391.043L72.5545 282.208L0.0557066 236.437L139.857 5.45485L195.129 40.349L187.99 46.8854L559.399 274.337Z"
            fill="#000000" />
    </g>
    <defs>
        <clipPath id="clip0_52_672">
            <rect width="1000" height="1000" fill="white" />
        </clipPath>
    </defs>
</svg>
    