<svg width="1000" height="1000" viewBox="0 0 1000 1000" xmlns="http://www.w3.org/2000/svg">
    <g clip-path="url(#clip0_52_670)">
        <path
            d="M619.067 354.23L626.375 670.116L655 667.072L655 729.154L626.375 729.154L626.375 920.268L632.466 920.268L632.466 1000L556.945 1000L556.945 971.394L461.326 971.394L461.326 901.4L556.945 896.531L552.682 754.108L484.47 754.108L484.47 670.116L503.959 670.116L503.959 581.254L387.633 581.254L383.369 563.603L345 563.603L345 469.872L383.369 469.872L383.369 453.439L525.275 447.961L525.275 432.745L516.139 432.745L516.139 377.967L525.275 377.967L525.275 358.491L480.206 358.491L475.334 273.281L544.764 273.281L540.501 127.815L422.348 127.815L422.348 54.7778L493.605 54.7778L493.605 -7.05479e-06L540.501 -5.00491e-06L540.501 28.6062L614.195 28.6062L614.194 294.583L645.255 294.583L645.255 354.23L619.067 354.23Z"
            fill="#000000" />
    </g>
    <defs>
        <clipPath id="clip0_52_670">
            <rect width="1000" height="1000" fill="white" />
        </clipPath>
    </defs>
</svg>
    