<svg width="1000" height="1000" viewBox="0 0 1000 1000" xmlns="http://www.w3.org/2000/svg">
    <g clip-path="url(#clip0_52_653)">
        <path
            d="M438.547 248.277L767.376 422.715L609.594 720.042L526.05 673.123L529.218 662.234L397.171 592.549L389.45 604.229L283.932 549.589L438.547 248.277ZM415.977 54.4641L366.88 150.48L331.641 132.464L307.689 173.048L375.267 212.96L216.621 532.364L267.301 557.308L259.779 570.968L174.849 528.603L129.316 615.71L166.732 635.903L157.824 652.334L163.961 656.294L132.681 716.477L189.44 749.77L175.245 782.599L343.52 872.478L326.795 906.409L431.258 959.098L450.006 921.928L513.736 954.072L564.151 854.12L665.983 905.483L712.539 803.189L682.447 790.321L847.753 461.888L879.428 477.131L912.662 411.801L426.865 162.753L432.606 156.814L410.038 150.48L442.308 87.9197L471.805 103.361L479.526 97.0264L630.776 177.403L623.847 194.824L733.127 248.277L741.639 236.794L896.651 315.784L890.909 321.723L942.976 351.221L984.946 275.399L974.255 265.104L965.545 275.399L464.084 8.78802L432.606 61.5899L415.977 54.4641Z"
            fill="#000000" />
    </g>
    <defs>
        <clipPath id="clip0_52_653">
            <rect width="1000" height="1000" fill="white" />
        </clipPath>
    </defs>
</svg>
    