<svg width="1000" height="1000" viewBox="0 0 1000 1000" xmlns="http://www.w3.org/2000/svg">
    <g clip-path="url(#clip0_52_664)">
        <path
            d="M410.277 273.95L408.316 264.778L434.54 259.172L436.501 268.343L475.384 260.031L473.424 250.859L497.839 245.64L499.8 254.811L540.492 246.112L538.531 236.94L562.946 231.721L566.083 246.395L821.088 191.88L845.597 306.525L590.592 361.04L597.847 394.975L518.271 411.986L549.447 557.814L584.713 550.275L586.282 557.612L831.339 505.223L830.163 499.72L964.899 470.916L999.996 635.087L861.642 664.664L853.211 625.227L607.25 677.809L611.563 697.986L420.762 738.776L415.86 715.847L168.09 768.816L176.914 810.088L40.3689 839.279L8.69314 673.418L141.033 642.249L142.797 650.503L422.217 590.768L390.649 443.106L311.978 459.925L303.351 419.57L57.3891 472.152L32.292 354.756L283.047 306.903L279.91 292.229L305.229 286.816L307.19 295.988L349.691 286.902L347.73 277.73L372.145 272.511L374.106 281.682L410.277 273.95Z"
            fill="#000000" />
    </g>
    <defs>
        <clipPath id="clip0_52_664">
            <rect width="1000" height="1000" fill="white" />
        </clipPath>
    </defs>
</svg>
    