<svg width="1000" height="1000" viewBox="0 0 1000 1000" fill="none"
    xmlns="http://www.w3.org/2000/svg">
    <path fill-rule="evenodd" clip-rule="evenodd"
        d="M92 773.497L160.412 639.14L176.51 647.345L249.73 503.547L233.638 495.345L328.152 309.729L344.244 317.931L423.869 161.554L407.772 153.35L481.273 9L497.37 17.2044L497.372 17.2004L610.569 74.8979L610.571 74.8941L796.465 169.646L796.463 169.649L883.208 213.863L883.209 213.861L908 226.497L859.201 322.335L845.885 315.548L741.463 520.625L754.78 527.412L660.359 712.846L647.042 706.058L554.209 888.375L567.525 895.162L518.726 991L493.935 978.364L493.936 978.362L372.788 916.612L466.074 733.405L326.795 662.414L233.509 845.621L116.972 786.221L116.971 786.224L92 773.497ZM545.241 502.433L500.008 591.265L391.25 535.83L436.482 446.998L545.241 502.433ZM694.78 284.246L555.501 213.254L528.075 267.116L667.354 338.108L694.78 284.246Z"
        fill="#000000" />
</svg>
    