<svg width="1000" height="1000" viewBox="0 0 1000 1000" xmlns="http://www.w3.org/2000/svg">
    <path
        d="M301.097 660.784L301.585 660.735L301.546 660.246L290.511 522.303L338.769 436.818L339.017 436.379L338.576 436.134L84.8818 295.5L171.466 101.716L932.9 552.783L909.585 610.384L909.412 610.813L909.825 611.019L920.461 616.337L917.87 622.815L917.721 623.188L918.054 623.414L999.212 678.437L966.345 772.93L871.501 749.563L871.13 749.471L870.945 749.805L864.318 761.733L859.253 757.934L858.725 757.538L858.487 758.154L835.122 818.628L491.572 851.741L490.767 851.819L491.196 852.504L497.692 862.898L420.31 873.759V863.286V862.732L419.758 862.789L75.0715 898.637V892.286V891.786H74.5715H29.4465L0.553967 637.257L54.8298 631.83L64.4131 683.853L64.4965 684.306L64.9543 684.26L301.097 660.784Z"
        fill="#000000" />
    <path
        d="M548.239 497.336L672.525 570.526L629.716 649.241L570.335 654.765V661.669L513.715 665.812L509.573 627.146L476.43 599.527V558.098L498.525 509.765L538.573 524.955L548.239 497.336Z"
        fill="white" />
</svg>
    