<svg width="20" height="20" viewBox="0 0 20 20" fill="none" xmlns="http://www.w3.org/2000/svg">
<path d="M18.6 19.9L15.575 16.875C15.1583 17.1417 14.7167 17.3708 14.25 17.5625C13.7833 17.7542 13.3 17.9083 12.8 18.025V15.975C13.0333 15.8917 13.2625 15.8083 13.4875 15.725C13.7125 15.6417 13.925 15.5417 14.125 15.425L10.8 12.1V17.3L5.80001 12.3H1.80001V6.3H5.00001L0.200012 1.5L1.60001 0.0999985L20 18.5L18.6 19.9ZM18.4 14.1L16.95 12.65C17.2333 12.1333 17.4458 11.5917 17.5875 11.025C17.7292 10.4583 17.8 9.875 17.8 9.275C17.8 7.70833 17.3417 6.30833 16.425 5.075C15.5083 3.84167 14.3 3.00833 12.8 2.575V0.524999C14.8667 0.991665 16.55 2.0375 17.85 3.6625C19.15 5.2875 19.8 7.15833 19.8 9.275C19.8 10.1583 19.6792 11.0083 19.4375 11.825C19.1958 12.6417 18.85 13.4 18.4 14.1ZM15.05 10.75L12.8 8.5V5.25C13.5833 5.61667 14.1958 6.16667 14.6375 6.9C15.0792 7.63333 15.3 8.43333 15.3 9.3C15.3 9.55 15.2792 9.79583 15.2375 10.0375C15.1958 10.2792 15.1333 10.5167 15.05 10.75ZM10.8 6.5L8.20001 3.9L10.8 1.3V6.5ZM8.80001 12.45V10.1L7.00001 8.3H3.80001V10.3H6.65001L8.80001 12.45Z" fill="black"/>
</svg>
