<svg width="2160" height="1384" viewBox="0 0 2160 1384" fill="none" xmlns="http://www.w3.org/2000/svg">
    <path d="M1509 941H1280V1045H1509V941Z" fill="white" />
    <path d="M778 943H665V1050H778V943Z" fill="white" />
    <path d="M1621 940H1585V1045H1621V940Z" fill="white" />
    <path d="M1564.12 796.679L1501.33 812.328L1513.54 861.319L1576.33 845.67L1564.12 796.679Z" fill="white" />
    <path d="M1686 829H1666V890H1686V829Z" fill="white" />
    <path d="M936.674 682.971L890.898 694L906.065 756.95L951.84 745.921L936.674 682.971Z" fill="white" />
    <path d="M749 839H733V879H749V839Z" fill="white" />
    <path d="M748 768H735V825H748V768Z" fill="white" />
    <path d="M785 861H763V881H785V861Z" fill="white" />
    <path d="M719 819H697V836H719V819Z" fill="white" />
    <path d="M724 868H697V880H724V868Z" fill="white" />
    <path d="M722 801H697V812H722V801Z" fill="white" />
    <path d="M724 846H701V857H724V846Z" fill="white" />
    <path d="M722 779H698V792H722V779Z" fill="white" />
    <path d="M532 905.5H437V1049.5H532V905.5Z" fill="white" />
    <path d="M1107 779.5H1055V801.5H1107V779.5Z" fill="white" />
    <path d="M1143.34 845.5H1021.5V878.815H1143.34V845.5Z" fill="white" />
    <path d="M1057.4 509.393L855.207 566.629L889.811 688.869L1092 631.633L1057.4 509.393Z" fill="white" />
    <path d="M1331.71 662.898L1118.74 717.562L1162.37 887.552L1375.34 832.887L1331.71 662.898Z" fill="white" />
    <path d="M1439.74 632.117L1335.95 661.35L1397 878.069L1500.78 848.836L1439.74 632.117Z" fill="white" />
    <path d="M1649.65 677.635L1579.41 698.877L1622.11 840.075L1692.35 818.832L1649.65 677.635Z" fill="white" />
    <path d="M1579 940.5H1513V1045.5H1579V940.5Z" fill="white" />
    <path d="M1274 938.5H1125V1045.5H1274V938.5Z" fill="white" />
    <path d="M1120 939.5H1026V1045.5H1120V939.5Z" fill="white" />
    <path d="M1525.88 668.386L1465.38 685.289L1500.51 811.01L1561.01 794.107L1525.88 668.386Z" fill="white" />
    <path d="M1511.49 609.705L1447.89 628.232L1462.51 678.425L1526.11 659.898L1511.49 609.705Z" fill="white" />
    <path d="M712 715.5H690V769.5H712V715.5Z" fill="white" />
    <path d="M1079 739H1010V769H1079V739Z" fill="white" />
    <path d="M769.709 906.5H537.289V937.421H769.709V906.5Z" fill="white" />
    <path d="M816.877 421.995L768.523 433.947L886.673 911.919L935.026 899.967L816.877 421.995Z" fill="white" />
    <path d="M1620.37 886.816H1005.89V934.184H1620.37V886.816Z" fill="white" />
    <path d="M1571.34 699.115L1544.32 706.949L1585.32 848.359L1612.34 840.526L1571.34 699.115Z" fill="white" />
    <path d="M765 592.5H615V706.5H765V592.5Z" fill="white" />
    <path d="M829.389 308.425L671.176 346.248L693.795 440.863L852.008 403.04L829.389 308.425Z" fill="white" />
    <path d="M765 473H628V579H765V473Z" fill="white" />
    <path d="M1014.06 364.033L818.27 416.822L856.922 560.177L1052.71 507.388L1014.06 364.033Z" fill="white" />
    <path d="M1019 941H797V1046H1019V941Z" fill="white" />
    <path d="M1110.85 633.736L964.602 671.057L980.544 733.528L1126.79 696.208L1110.85 633.736Z" fill="white" />
    <path d="M565 792H439V861H565V792Z" fill="white" />
    <path d="M640 812.5H609V894.5H640V812.5Z" fill="white" />
    <path d="M1049 1073H1642H1713.5L1710 822L1654 657.5L1552.5 690.5L1521.5 587.5L1404.5 618L1341.5 587.5L1271 605.5L1248 663.5L1151 688.5L1128 599.5L1057.5 345.5L817 292.5L719 315L642 292.5L677 443.5L567 468L593 571.5L567 560L585.5 726.5H656.5V769.5H411V1073H863L908 1124L1049 1073Z" fill="white" />
</svg>
    